<?xml version="1.0" encoding="utf-8"?>
<!-- Generator: Adobe Illustrator 22.0.1, SVG Export Plug-In . SVG Version: 6.00 Build 0)  -->
<svg version="1.1" xmlns="http://www.w3.org/2000/svg" xmlns:xlink="http://www.w3.org/1999/xlink" x="0px" y="0px"
	 viewBox="0 0 1080 1080" style="enable-background:new 0 0 1080 1080;" xml:space="preserve">
<style type="text/css">
	.st0{fill:none;stroke:#41E063;stroke-width:10;stroke-linecap:round;stroke-linejoin:round;stroke-miterlimit:10;}
	.st1{fill:none;stroke:#000000;stroke-width:10;stroke-linecap:round;stroke-linejoin:round;stroke-miterlimit:10;}
	.st2{fill:none;stroke:#016065;stroke-width:10;stroke-linecap:round;stroke-linejoin:round;stroke-miterlimit:10;}
</style>
<g id="All">
	<g id="Layer_18">
	</g>
	<g>
		<polyline class="st0" points="513.6,308.6 570.1,308.6 666.3,308.6 715.3,308.6 715.3,324.2 715.3,520 715.3,540.9 715.3,737 
			715.3,771.4 690.4,771.4 566.4,771.4 545.2,771.4 413.7,771.4 364.7,771.4 364.7,752 364.7,560 364.7,522.2 364.7,343 
			364.7,308.6 387.8,308.6 		"/>
		<polyline class="st0" points="513.6,308.6 531.6,304.4 658.6,275 666.3,308.6 		"/>
		<polyline class="st0" points="413.7,771.4 421.4,805 559.7,773 566.4,771.4 		"/>
		<polyline class="st0" points="715.3,737 762.9,726 716.8,526.7 715.3,520 		"/>
		<polyline class="st0" points="364.7,560 362,548 317.1,354 364.7,343 		"/>
		<line class="st0" x1="513.6" y1="308.6" x2="387.8" y2="308.6"/>
		<line class="st0" x1="570.1" y1="308.6" x2="531.6" y2="304.4"/>
		<polyline class="st0" points="364.7,522.2 362,548 340.2,749.3 364.7,752 		"/>
		<polyline class="st0" points="715.3,540.9 716.8,526.7 738.4,326.7 715.3,324.2 		"/>
		<polyline class="st0" points="690.4,771.4 688.7,786.9 559.7,773 545.2,771.4 		"/>
		<g>
			<polyline class="st1" points="494.2,346.2 461.9,346.2 461.9,411.5 494.2,411.5 			"/>
			<line class="st1" x1="461.9" y1="378.9" x2="494.2" y2="378.9"/>
			<polyline class="st1" points="616.7,346.2 584.4,346.2 584.4,411.5 616.7,411.5 			"/>
			<polyline class="st1" points="519.4,411.5 519.4,346.2 558.3,411.5 558.3,346.2 			"/>
			<polyline class="st1" points="603.8,381.7 618.1,381.7 618.1,411.5 			"/>
		</g>
		<line class="st1" x1="405.8" y1="442.3" x2="672.4" y2="442.3"/>
		<rect x="405.8" y="483.6" class="st1" width="52.9" height="52.9"/>
		<rect x="405.8" y="575.6" class="st1" width="52.9" height="52.9"/>
		<rect x="405.8" y="667.7" class="st1" width="52.9" height="52.9"/>
		<line class="st1" x1="492.2" y1="493.6" x2="523.6" y2="493.6"/>
		<line class="st1" x1="551.8" y1="493.6" x2="672.4" y2="493.6"/>
		<line class="st1" x1="492.2" y1="520" x2="672.4" y2="520"/>
		<line class="st1" x1="492.2" y1="588.9" x2="523.6" y2="588.9"/>
		<line class="st1" x1="551.8" y1="588.9" x2="672.4" y2="588.9"/>
		<line class="st1" x1="492.2" y1="615.3" x2="672.4" y2="615.3"/>
		<line class="st1" x1="492.2" y1="684.1" x2="523.6" y2="684.1"/>
		<line class="st1" x1="551.8" y1="684.1" x2="672.4" y2="684.1"/>
		<line class="st1" x1="492.2" y1="710.6" x2="672.4" y2="710.6"/>
		<polyline class="st0" points="421.7,510 438.9,536.4 470.1,464.2 		"/>
		<polyline class="st0" points="421.7,694.2 438.9,720.6 470.1,648.4 		"/>
		<line class="st0" x1="405.8" y1="575.6" x2="458.7" y2="628.5"/>
		<line class="st0" x1="405.8" y1="628.5" x2="458.7" y2="575.6"/>
	</g>
</g>
<g id="Layer_19">
</g>
<g id="Layer_2">
	<g id="Layer_4">
		<g id="Layer_5">
			<g id="Layer_6">
				<g id="Layer_7">
					<g id="Layer_8">
						<g id="Layer_9">
							<g id="Layer_10">
								<g id="Layer_11">
									<g id="Layer_12">
										<g id="Layer_13">
											<g id="Layer_14">
												<g id="Layer_15">
													<g id="Layer_16">
														<g id="Layer_17">
														</g>
													</g>
												</g>
											</g>
										</g>
									</g>
								</g>
							</g>
						</g>
					</g>
				</g>
			</g>
		</g>
	</g>
</g>
</svg>
