<?xml version="1.0" encoding="utf-8"?>
<!-- Generator: Adobe Illustrator 22.0.1, SVG Export Plug-In . SVG Version: 6.00 Build 0)  -->
<svg version="1.1" xmlns="http://www.w3.org/2000/svg" xmlns:xlink="http://www.w3.org/1999/xlink" x="0px" y="0px"
	 viewBox="0 0 1080 1080" style="enable-background:new 0 0 1080 1080;" xml:space="preserve">
<style type="text/css">
	.st0{fill:none;stroke:#41E063;stroke-width:10;stroke-linecap:round;stroke-linejoin:round;stroke-miterlimit:10;}
	.st1{fill:none;stroke:#000000;stroke-width:10;stroke-linecap:round;stroke-linejoin:round;stroke-miterlimit:10;}
	.st2{fill:none;stroke:#016065;stroke-width:10;stroke-linecap:round;stroke-linejoin:round;stroke-miterlimit:10;}
</style>
<g id="All">
	<g id="Layer_18">
	</g>
	<g>
		<path class="st0" d="M448.8,740.2c0-21.6,0-43,0-64.4c0-21.4,0-53,0-75.1c-15.5,0-30.6,0-46,0c0-15.3,0-29.9,0-44.9
			c91.4,0,182.8,0,274.4,0c0,14.7,0,29.4,0,44.7c-15.1,0-30.2,0-45.8,0c0,43.5,0,96.5,0,139.7C570.5,740.2,510.1,740.2,448.8,740.2z
			"/>
		<g>
			<path class="st0" d="M700,680c-13.7,0-27.5-0.1-41.2,0.1c-4.7,0.1-6.4-1.6-6.3-6.3c0.2-13.2,0.2-26.5,0-39.7
				c-0.1-5,2-6.6,6.6-6.8c15.4-0.7,30.7-1.7,46-2.3c4.3-0.1,5.4-1.6,5.6-5.7c1.8-29.4,3.4-58.7,6.1-88c1.9-20.6,17.6-33.3,37-31.9
				c18.6,1.3,33.1,17.3,32.3,37.2c-0.9,22.9-2.9,45.7-4.2,68.5c-0.6,10.1-0.8,20.3-1.2,30.4c-0.1,3.4-0.1,6.9-0.7,10.3
				c-3.2,20.9-15.9,32.7-37.3,34.1c-7.2,0.5-14.4,0.2-21.6,0.3C714.1,680.1,707.1,680,700,680C700,680,700,680,700,680z"/>
			<path class="st0" d="M713.7,739.7c-10.6,0-21.2,0.1-31.9,0c-9.9-0.2-16.9-7.4-16.8-16.7c0.2-9.2,7.1-16.2,16.8-16.1
				c13.9,0.1,27.8,1.2,41.7,1.3c10.1,0.1,20.3,0,30.3-1.2c25.5-3.3,43.8-21,48.1-46.7c4.9-29.8,9.2-59.8,13.8-89.6
				c0.3-1.8,0.5-3.6,0.9-5.3c1.8-9.1,9.5-14.5,18.7-13.3c8.5,1.1,14.7,8.5,13.8,17.3c-1,9.6-2.7,19.1-4.1,28.6
				c-3.5,23.1-6.6,46.3-10.8,69.3c-7.5,41.1-39.2,69.8-80.9,73.1L713.7,739.7z"/>
			<path class="st0" d="M780.3,446.3c0.1,19.9-14.7,34.7-34.7,34.9c-20.1,0.2-35-14.6-35.2-34.9c-0.2-19.2,15.4-34.8,35-35
				C764.5,411,780.2,426.8,780.3,446.3z"/>
			<path class="st0" d="M380,680c13.7,0,27.5-0.1,41.2,0.1c4.7,0.1,6.4-1.6,6.3-6.3c-0.2-13.2-0.2-26.5,0-39.7c0.1-5-2-6.6-6.6-6.8
				c-15.4-0.7-30.7-1.7-46-2.3c-4.3-0.1-5.4-1.6-5.6-5.7c-1.8-29.4-3.4-58.7-6.1-88c-1.9-20.6-17.6-33.3-37-31.9
				c-18.6,1.3-33.1,17.3-32.3,37.2c0.9,22.9,2.9,45.7,4.2,68.5c0.6,10.1,0.8,20.3,1.2,30.4c0.1,3.4,0.1,6.9,0.7,10.3
				c3.2,20.9,15.9,32.7,37.3,34.1c7.2,0.5,14.4,0.2,21.6,0.3C365.9,680.1,372.9,680,380,680C380,680,380,680,380,680z"/>
			<path class="st0" d="M366.3,739.7c10.6,0,21.2,0.1,31.9,0c9.9-0.2,16.9-7.4,16.8-16.7c-0.2-9.2-7.1-16.2-16.8-16.1
				c-13.9,0.1-27.8,1.2-41.7,1.3c-10.1,0.1-20.3,0-30.3-1.2c-25.5-3.3-43.8-21-48.1-46.7c-4.9-29.8-9.2-59.8-13.8-89.6
				c-0.3-1.8-0.5-3.6-0.9-5.3c-1.8-9.1-9.5-14.5-18.7-13.3c-8.5,1.1-14.7,8.5-13.8,17.3c1,9.6,2.7,19.1,4.1,28.6
				c3.5,23.1,6.6,46.3,10.8,69.3c7.5,41.1,39.2,69.8,80.9,73.1L366.3,739.7z"/>
			<path class="st0" d="M299.7,446.3c-0.1,19.9,14.7,34.7,34.7,34.9c20.1,0.2,35-14.6,35.2-34.9c0.2-19.2-15.4-34.8-35-35
				C315.5,411,299.8,426.8,299.7,446.3z"/>
		</g>
		<path class="st1" d="M567.4,376.2c-0.3-9.9-4.5-18.8-11-25.4c-6.8-6.8-16.2-11-26.7-11h-39.1c-20.8,0-37.7,16.9-37.7,37.7
			c0,8.7,2.9,16.7,7.9,23s11.8,11.1,19.8,13.3l-3.8,30.9l31.2-29.5h11.3"/>
		<path class="st1" d="M556.9,376.2H596c20.8,0,37.7,16.9,37.7,37.7l0,0c0,17.3-11.7,31.9-27.6,36.3l3.8,30.9l-31.2-29.5h-21.7
			c-20.8,0-37.7-16.9-37.7-37.7l0,0C519.2,393.1,536.1,376.2,556.9,376.2z"/>
		<line class="st1" x1="554.6" y1="404.5" x2="582.5" y2="404.5"/>
		<line class="st1" x1="554.6" y1="423.4" x2="565.4" y2="423.4"/>
		<line class="st1" x1="580.9" y1="423.4" x2="600" y2="423.4"/>
		<line class="st1" x1="483.8" y1="378.7" x2="496.4" y2="378.7"/>
		<line class="st1" x1="516.8" y1="378.7" x2="540" y2="378.7"/>
		<line class="st0" x1="448.8" y1="600.8" x2="631.5" y2="600.8"/>
	</g>
</g>
<g id="Layer_19">
</g>
<g id="Layer_2">
	<g id="Layer_4">
		<g id="Layer_5">
			<g id="Layer_6">
				<g id="Layer_7">
					<g id="Layer_8">
						<g id="Layer_9">
							<g id="Layer_10">
								<g id="Layer_11">
									<g id="Layer_12">
										<g id="Layer_13">
											<g id="Layer_14">
												<g id="Layer_15">
													<g id="Layer_16">
														<g id="Layer_17">
														</g>
													</g>
												</g>
											</g>
										</g>
									</g>
								</g>
							</g>
						</g>
					</g>
				</g>
			</g>
		</g>
	</g>
</g>
</svg>
