<?xml version="1.0" encoding="utf-8"?>
<!-- Generator: Adobe Illustrator 22.0.1, SVG Export Plug-In . SVG Version: 6.00 Build 0)  -->
<svg version="1.1" xmlns="http://www.w3.org/2000/svg" xmlns:xlink="http://www.w3.org/1999/xlink" x="0px" y="0px"
	 viewBox="0 0 1080 1080" style="enable-background:new 0 0 1080 1080;" xml:space="preserve">
<style type="text/css">
	.st0{fill:none;stroke:#41E063;stroke-width:10;stroke-linecap:round;stroke-linejoin:round;stroke-miterlimit:10;}
	.st1{fill:none;stroke:#000000;stroke-width:10;stroke-linecap:round;stroke-linejoin:round;stroke-miterlimit:10;}
	.st2{fill:none;stroke:#016065;stroke-width:10;stroke-linecap:round;stroke-linejoin:round;stroke-miterlimit:10;}
</style>
<g id="All">
	<g id="Layer_18">
	</g>
	<g>
		<path class="st0" d="M775.3,342.8v295.2c0,11-8.9,19.9-19.9,19.9H324.6c-11,0-19.9-8.9-19.9-19.9V342.8c0-11,8.9-19.9,19.9-19.9
			h430.8C766.4,322.9,775.3,331.8,775.3,342.8z"/>
		<path class="st0" d="M775.3,615.4v22.7c0,11-8.9,19.9-19.9,19.9H324.6c-11,0-19.9-8.9-19.9-19.9v-22.7c0-11,8.9-19.9,19.9-19.9
			h430.8C766.4,595.5,775.3,604.4,775.3,615.4z"/>
		<g>
			<path class="st0" d="M514,658c0,0,9.4,92-43.3,99.1"/>
			<path class="st0" d="M572.8,658c0,0-9.4,92,43.3,99.1"/>
			<line class="st0" x1="438.5" y1="757.1" x2="641.5" y2="757.1"/>
		</g>
		<rect x="339.6" y="368.2" class="st1" width="43.9" height="43.9"/>
		<rect x="339.6" y="444.6" class="st1" width="43.9" height="43.9"/>
		<rect x="339.6" y="521.1" class="st1" width="43.9" height="43.9"/>
		<line class="st1" x1="411.3" y1="376.5" x2="437.4" y2="376.5"/>
		<line class="st1" x1="460.8" y1="376.5" x2="527.4" y2="376.5"/>
		<line class="st1" x1="411.3" y1="398.4" x2="527.4" y2="398.4"/>
		<line class="st1" x1="411.3" y1="455.6" x2="437.4" y2="455.6"/>
		<line class="st1" x1="460.8" y1="455.6" x2="527.4" y2="455.6"/>
		<line class="st1" x1="411.3" y1="477.5" x2="527.4" y2="477.5"/>
		<line class="st1" x1="411.3" y1="534.7" x2="437.4" y2="534.7"/>
		<line class="st1" x1="460.8" y1="534.7" x2="527.4" y2="534.7"/>
		<line class="st1" x1="411.3" y1="556.6" x2="527.4" y2="556.6"/>
		<polyline class="st0" points="352.8,390.1 367.1,412 393,352.1 		"/>
		<polyline class="st0" points="352.8,543 367.1,564.9 393,505 		"/>
		<line class="st0" x1="339.6" y1="444.6" x2="383.5" y2="488.5"/>
		<line class="st0" x1="339.6" y1="488.5" x2="383.5" y2="444.6"/>
		<rect x="556" y="368.2" class="st1" width="43.9" height="43.9"/>
		<rect x="556" y="444.6" class="st1" width="43.9" height="43.9"/>
		<rect x="556" y="521.1" class="st1" width="43.9" height="43.9"/>
		<line class="st1" x1="627.7" y1="376.5" x2="653.8" y2="376.5"/>
		<line class="st1" x1="677.2" y1="376.5" x2="743.8" y2="376.5"/>
		<line class="st1" x1="627.7" y1="398.4" x2="743.8" y2="398.4"/>
		<line class="st1" x1="627.7" y1="455.6" x2="653.8" y2="455.6"/>
		<line class="st1" x1="677.2" y1="455.6" x2="743.8" y2="455.6"/>
		<line class="st1" x1="627.7" y1="477.5" x2="743.8" y2="477.5"/>
		<line class="st1" x1="627.7" y1="534.7" x2="653.8" y2="534.7"/>
		<line class="st1" x1="677.2" y1="534.7" x2="743.8" y2="534.7"/>
		<line class="st1" x1="627.7" y1="556.6" x2="743.8" y2="556.6"/>
		<polyline class="st0" points="569.2,390.1 583.5,412 609.4,352.1 		"/>
		<polyline class="st0" points="569.2,543 583.5,564.9 609.4,505 		"/>
		<line class="st0" x1="556" y1="444.6" x2="599.9" y2="488.5"/>
		<line class="st0" x1="556" y1="488.5" x2="599.9" y2="444.6"/>
		<line class="st2" x1="339.8" y1="626.7" x2="357.7" y2="626.7"/>
		<line class="st1" x1="380.9" y1="626.7" x2="398.9" y2="626.7"/>
		<circle class="st1" cx="540" cy="626.7" r="13.9"/>
	</g>
</g>
<g id="Layer_19">
</g>
<g id="Layer_2">
	<g id="Layer_4">
		<g id="Layer_5">
			<g id="Layer_6">
				<g id="Layer_7">
					<g id="Layer_8">
						<g id="Layer_9">
							<g id="Layer_10">
								<g id="Layer_11">
									<g id="Layer_12">
										<g id="Layer_13">
											<g id="Layer_14">
												<g id="Layer_15">
													<g id="Layer_16">
														<g id="Layer_17">
														</g>
													</g>
												</g>
											</g>
										</g>
									</g>
								</g>
							</g>
						</g>
					</g>
				</g>
			</g>
		</g>
	</g>
</g>
</svg>
